name C:\Users\antoi\Documents\MyRepositories\predsim_tutorial\Results\Case_1\GRF.mot
datacolumns 19
datarows 10
range 0.000000 0.951045
endheader 
time	r_ground_force_vx	r_ground_force_vy	r_ground_force_vz	r_ground_force_px	r_ground_force_py	r_ground_force_pz	l_ground_force_vx	l_ground_force_vy	l_ground_force_vz	l_ground_force_px	l_ground_force_py	l_ground_force_pz	r_ground_torque_x	r_ground_torque_y	r_ground_torque_z	l_ground_torque_x	l_ground_torque_y	l_ground_torque_z	
          0.00000000	        -97.96764828	        241.58832055	         26.33876452	          0.15442755	          0.00000000	          0.05343693	         52.06548030	        331.24801673	         -0.12659425	         -0.31772012	          0.00000000	         -0.06868235	          0.00000000	         -0.00080655	          0.00000000	          0.00000000	         -1.07344030	          0.00000000	
          0.10567172	        -92.42477558	        809.06539700	         -9.51437633	          0.21338662	          0.00000000	          0.05155612	          0.00000000	          0.00000000	          0.00000000	          0.00000000	          0.00000000	          0.00000000	          0.00000000	         -4.82957933	          0.00000000	          0.00000000	          0.00000000	          0.00000000	
          0.21134343	         -9.49991293	        538.38153174	        -23.15519626	          0.27544085	          0.00000000	          0.04558183	          0.00000000	          0.00000000	          0.00000000	          0.00000000	          0.00000000	          0.00000000	          0.00000000	         -5.17561093	          0.00000000	          0.00000000	          0.00000000	          0.00000000	
          0.31701515	         14.83509118	        530.53516307	        -24.87289276	          0.32491279	          0.00000000	          0.04621584	          0.00000000	          0.00000000	          0.00000000	          0.00000000	          0.00000000	          0.00000000	          0.00000000	         -0.03169696	          0.00000000	          0.00000000	          0.00000000	          0.00000000	
          0.42268686	         61.56266094	        631.54190387	        -10.99373910	          0.34510804	          0.00000000	          0.05310835	          0.00000000	          0.00000000	          0.00000000	          0.00000000	          0.00000000	          0.00000000	          0.00000000	          2.55295557	          0.00000000	          0.00000000	          0.00000000	          0.00000000	
          0.52835858	         52.06548030	        331.24801673	          0.12659425	          0.38499679	          0.00000000	          0.06868235	        -97.96764828	        241.58832055	        -26.33876452	          0.85714446	          0.00000000	         -0.05343693	          0.00000000	          1.07344030	          0.00000000	          0.00000000	          0.00080655	          0.00000000	
          0.63403030	          0.00000000	          0.00000000	          0.00000000	          0.00000000	          0.00000000	          0.00000000	        -92.42477558	        809.06539700	          9.51437633	          0.91610353	          0.00000000	         -0.05155612	          0.00000000	          0.00000000	          0.00000000	          0.00000000	          4.82957933	          0.00000000	
          0.73970201	          0.00000000	          0.00000000	          0.00000000	          0.00000000	          0.00000000	          0.00000000	         -9.49991293	        538.38153174	         23.15519626	          0.97815777	          0.00000000	         -0.04558183	          0.00000000	          0.00000000	          0.00000000	          0.00000000	          5.17561093	          0.00000000	
          0.84537373	          0.00000000	          0.00000000	          0.00000000	          0.00000000	          0.00000000	          0.00000000	         14.83509118	        530.53516307	         24.87289276	          1.02762970	          0.00000000	         -0.04621584	          0.00000000	          0.00000000	          0.00000000	          0.00000000	          0.03169696	          0.00000000	
          0.95104545	          0.00000000	          0.00000000	          0.00000000	          0.00000000	          0.00000000	          0.00000000	         61.56266094	        631.54190387	         10.99373910	          1.04782496	          0.00000000	         -0.05310835	          0.00000000	          0.00000000	          0.00000000	          0.00000000	         -2.55295557	          0.00000000	
